<svg width="22" height="24" viewBox="0 0 22 24" fill="none" xmlns="http://www.w3.org/2000/svg">
<path d="M11 13.1663C13.7953 13.1663 16.3375 13.976 18.2077 15.1158C19.141 15.6875 19.939 16.3583 20.5153 17.0875C21.0823 17.8062 21.5 18.6648 21.5 19.583C21.5 20.5688 21.0205 21.3458 20.3298 21.9C19.6765 22.425 18.8143 22.7727 17.8985 23.0153C16.0575 23.5018 13.6005 23.6663 11 23.6663C8.3995 23.6663 5.9425 23.503 4.1015 23.0153C3.18567 22.7727 2.3235 22.425 1.67017 21.9C0.978333 21.3447 0.5 20.5688 0.5 19.583C0.5 18.6648 0.917667 17.8062 1.48467 17.0875C2.061 16.3583 2.85783 15.6875 3.79233 15.1158C5.6625 13.976 8.20583 13.1663 11 13.1663ZM11 0.333008C12.5471 0.333008 14.0308 0.947589 15.1248 2.04155C16.2188 3.13551 16.8333 4.61924 16.8333 6.16634C16.8333 7.71344 16.2188 9.19717 15.1248 10.2911C14.0308 11.3851 12.5471 11.9997 11 11.9997C9.4529 11.9997 7.96917 11.3851 6.87521 10.2911C5.78125 9.19717 5.16667 7.71344 5.16667 6.16634C5.16667 4.61924 5.78125 3.13551 6.87521 2.04155C7.96917 0.947589 9.4529 0.333008 11 0.333008Z" fill="#0065FF"/>
</svg>
